#N canvas 78 30 450 300 10;
#X obj 196 108 r freq;
#X obj 176 185 osc~;
#X obj 264 228 *~;
#X obj 166 227 *~;
#X obj 220 276 dac~;
#X obj 270 181 osc~;
#X obj 270 152 * 3;
#X obj 103 168 r left;
#X obj 326 175 r right;
#X connect 0 0 1 0;
#X connect 0 0 6 0;
#X connect 1 0 3 0;
#X connect 2 0 4 1;
#X connect 3 0 4 0;
#X connect 5 0 2 0;
#X connect 6 0 5 0;
#X connect 7 0 3 1;
#X connect 8 0 2 1;
